<?xml version="1.0" standalone="no"?>
<!DOCTYPE svg PUBLIC "-//W3C//DTD SVG 20010904//EN"
 "http://www.w3.org/TR/2001/REC-SVG-20010904/DTD/svg10.dtd">
<svg version="1.0" xmlns="http://www.w3.org/2000/svg"
 width="112.000000pt" height="48.000000pt" viewBox="0 0 112.000000 48.000000"
 preserveAspectRatio="xMidYMid meet">

<g transform="translate(0.000000,48.000000) scale(0.100000,-0.100000)"
fill="#000000" stroke="none">
<path d="M406 451 c-23 -25 -44 -26 -155 -4 -108 20 -150 13 -195 -31 -33 -34
-63 -96 -46 -96 5 0 11 9 15 20 9 29 58 60 94 60 l32 0 -35 -35 c-45 -44 -65
-83 -72 -139 -21 -147 137 -261 271 -196 53 25 68 38 94 80 31 52 25 66 -10
25 -34 -38 -82 -68 -93 -58 -3 4 -6 71 -6 150 0 137 1 143 20 143 56 0 116 48
108 87 -2 12 -6 12 -22 -6z m-231 -319 c-7 -30 -24 -24 -52 18 -40 58 -26 169
30 228 l22 24 3 -124 c1 -67 0 -133 -3 -146z m113 89 l-3 -156 -32 2 c-17 2
-44 8 -60 14 l-28 10 29 21 c43 32 56 75 56 182 0 90 1 94 20 89 20 -5 20 -12
18 -162z"/>
<path d="M526 438 c-9 -43 1 -47 29 -13 31 38 31 45 1 45 -18 0 -25 -7 -30
-32z"/>
<path d="M838 440 c-22 -17 -27 -18 -44 -5 -27 20 -40 18 -21 -3 14 -16 17
-44 17 -183 0 -98 -4 -169 -10 -175 -7 -7 2 -18 28 -35 l39 -26 26 22 c25 19
39 43 18 31 -4 -3 -16 3 -25 13 -15 17 -17 40 -14 179 3 141 5 163 22 181 16
17 16 21 4 21 -8 0 -27 -9 -40 -20z"/>
<path d="M653 357 c-48 -63 -50 -67 -27 -67 13 0 15 -15 12 -102 -2 -57 -7
-110 -11 -118 -5 -11 4 -21 32 -36 l38 -21 34 30 c20 17 26 26 15 23 -37 -12
-46 10 -46 120 l0 104 25 0 c32 0 34 27 3 32 -19 2 -24 11 -28 47 l-5 45 -42
-57z"/>
<path d="M480 315 c-13 -14 -18 -25 -12 -25 14 0 17 -200 3 -215 -5 -6 5 -21
23 -36 l31 -27 35 30 c19 17 28 28 19 25 -9 -3 -22 0 -28 6 -15 15 -15 199 1
215 8 8 5 16 -13 31 -31 26 -31 26 -59 -4z"/>
<path d="M977 307 c-39 -21 -54 -34 -47 -41 12 -12 13 -171 1 -194 -7 -14 0
-21 40 -39 l48 -21 48 34 c26 19 43 34 38 34 -6 0 -18 -7 -28 -14 -16 -12 -23
-12 -48 2 -47 27 -40 61 26 117 30 26 55 52 55 57 0 11 -63 97 -70 97 -3 -1
-31 -15 -63 -32z m58 -47 l28 -40 -23 -25 c-13 -14 -27 -25 -32 -25 -4 0 -8
29 -8 65 0 36 2 65 4 65 2 0 16 -18 31 -40z"/>
</g>
</svg>
