<?xml version="1.0" standalone="no"?>
<!DOCTYPE svg PUBLIC "-//W3C//DTD SVG 20010904//EN"
 "http://www.w3.org/TR/2001/REC-SVG-20010904/DTD/svg10.dtd">
<svg version="1.0" xmlns="http://www.w3.org/2000/svg"
 width="401.000000pt" height="56.000000pt" viewBox="0 0 401.000000 56.000000"
 preserveAspectRatio="xMidYMid meet">

<g transform="translate(0.000000,56.000000) scale(0.100000,-0.100000)"
fill="#000000" stroke="none">
<path d="M406 531 c-23 -25 -44 -26 -155 -4 -108 20 -150 13 -195 -31 -33 -34
-63 -96 -46 -96 5 0 11 9 15 20 9 29 58 60 94 60 l32 0 -35 -35 c-45 -44 -65
-83 -72 -139 -21 -147 137 -261 271 -196 53 25 68 38 94 80 31 52 25 66 -10
25 -34 -38 -82 -68 -93 -58 -3 4 -6 71 -6 150 0 137 1 143 20 143 56 0 116 48
108 87 -2 12 -6 12 -22 -6z m-231 -319 c-7 -30 -24 -24 -52 18 -40 58 -26 169
30 228 l22 24 3 -124 c1 -67 0 -133 -3 -146z m113 89 l-3 -156 -32 2 c-17 2
-44 8 -60 14 l-28 10 29 21 c43 32 56 75 56 182 0 90 1 94 20 89 20 -5 20 -12
18 -162z"/>
<path d="M526 518 c-9 -43 1 -47 29 -13 31 38 31 45 1 45 -18 0 -25 -7 -30
-32z"/>
<path d="M838 520 c-22 -17 -27 -18 -44 -5 -27 20 -40 18 -21 -3 14 -16 17
-44 17 -183 0 -98 -4 -169 -10 -175 -7 -7 2 -18 28 -35 l39 -26 26 22 c25 19
39 43 18 31 -4 -3 -16 3 -25 13 -15 17 -17 40 -14 179 3 141 5 163 22 181 16
17 16 21 4 21 -8 0 -27 -9 -40 -20z"/>
<path d="M1398 524 c-38 -20 -35 -34 5 -27 38 6 54 -8 62 -53 5 -26 1 -33 -51
-68 l-57 -39 36 -19 c41 -21 62 -48 72 -95 6 -29 4 -32 -27 -42 -37 -13 -106
-66 -97 -75 3 -4 22 1 42 9 20 8 48 15 62 15 24 0 25 -3 25 -55 l0 -55 50 0
50 0 0 49 c0 28 4 52 9 56 5 3 30 -2 56 -11 l46 -15 44 38 43 38 1 120 c1 140
-9 169 -77 218 l-41 30 -35 -27 c-42 -32 -43 -32 -49 -3 -3 16 -5 14 -6 -9 -1
-32 -31 -58 -31 -28 0 8 -11 26 -25 39 -28 28 -66 32 -107 9z m242 -49 c34
-18 70 -61 70 -85 0 -35 -79 -52 -118 -24 -29 20 -32 97 -4 113 22 13 18 13
52 -4z m-80 -230 c0 -184 -2 -215 -15 -215 -13 0 -15 29 -15 203 0 145 3 206
12 215 7 7 13 12 15 12 2 0 3 -97 3 -215z m-90 109 l0 -35 -30 18 -30 18 22
17 c33 25 38 23 38 -18z m240 -39 c0 -44 -1 -45 -21 -34 -14 7 -41 9 -70 5
l-49 -7 0 35 0 35 49 -6 c28 -3 56 -1 67 5 11 6 20 12 22 12 1 0 2 -20 2 -45z
m-31 -46 c29 -10 31 -14 31 -61 0 -48 -1 -50 -22 -43 -13 3 -43 12 -68 19 -37
10 -46 17 -48 38 -2 21 3 30 25 42 34 19 41 19 82 5z"/>
<path d="M1894 521 c-26 -16 -33 -17 -49 -5 -27 20 -41 17 -22 -4 14 -16 17
-44 17 -183 0 -103 -4 -169 -11 -176 -7 -7 1 -17 26 -32 41 -24 63 -21 91 11
16 18 16 20 3 15 -34 -12 -39 13 -39 187 0 144 3 172 17 188 21 23 6 23 -33
-1z"/>
<path d="M2726 523 c-23 -12 -34 -13 -48 -4 -25 16 -30 14 -18 -8 14 -27 13
-354 -1 -368 -7 -7 -2 -16 18 -31 l28 -20 29 23 c18 14 24 25 17 29 -7 5 -11
43 -11 100 0 89 1 95 25 110 23 15 25 15 36 -6 7 -14 10 -60 7 -134 -4 -104
-6 -116 -29 -140 -13 -14 -37 -33 -52 -41 -55 -28 -18 -25 40 4 91 45 103 70
103 218 0 109 -2 123 -21 144 l-21 22 -44 -36 -44 -36 0 73 c0 50 5 81 16 96
18 26 10 27 -30 5z"/>
<path d="M3235 522 c-27 -17 -32 -17 -52 -4 -27 17 -29 10 -7 -22 12 -20 14
-51 11 -173 -2 -81 -7 -158 -11 -170 -6 -16 -5 -23 4 -23 6 0 24 -9 39 -20
l28 -19 28 29 27 28 -23 4 -24 3 -3 171 c-2 143 0 173 13 184 16 13 20 30 8
30 -5 0 -21 -8 -38 -18z"/>
<path d="M3320 492 c0 -34 5 -43 35 -63 43 -29 43 -37 5 -50 l-30 -11 0 -98
c0 -54 -3 -105 -6 -114 -4 -11 5 -18 33 -25 21 -6 47 -17 57 -24 16 -12 25
-10 67 12 l48 26 3 130 c2 71 2 132 1 134 -2 2 -8 -1 -15 -7 -10 -8 -36 6
-106 59 l-92 70 0 -39z m133 -140 c14 -12 17 -32 17 -109 0 -51 -2 -93 -5 -93
-4 0 -19 7 -35 15 -30 15 -30 16 -30 109 0 51 3 96 6 99 8 7 21 1 47 -21z"/>
<path d="M653 437 c-48 -63 -50 -67 -27 -67 13 0 15 -15 12 -102 -2 -57 -7
-110 -11 -118 -5 -11 4 -21 32 -36 l38 -21 34 30 c20 17 26 26 15 23 -37 -12
-46 10 -46 120 l0 104 25 0 c32 0 34 27 3 32 -19 2 -24 11 -28 47 l-5 45 -42
-57z"/>
<path d="M480 395 c-13 -14 -18 -25 -12 -25 14 0 17 -200 3 -215 -5 -6 5 -21
23 -36 l31 -27 35 30 c19 17 28 28 19 25 -9 -3 -22 0 -28 6 -15 15 -15 199 1
215 8 8 5 16 -13 31 -31 26 -31 26 -59 -4z"/>
<path d="M977 387 c-39 -21 -54 -34 -47 -41 12 -12 13 -171 1 -194 -7 -14 0
-21 40 -39 l48 -21 48 34 c26 19 43 34 38 34 -6 0 -18 -7 -28 -14 -16 -12 -23
-12 -48 2 -47 27 -40 61 26 117 30 26 55 52 55 57 0 11 -63 97 -70 97 -3 -1
-31 -15 -63 -32z m58 -47 l28 -40 -23 -25 c-13 -14 -27 -25 -32 -25 -4 0 -8
29 -8 65 0 36 2 65 4 65 2 0 16 -18 31 -40z"/>
<path d="M2040 403 c-14 -7 -33 -13 -42 -13 -23 0 -23 -7 6 -54 l23 -39 -28
-46 c-36 -55 -37 -100 -6 -137 l23 -27 36 32 c20 17 38 31 42 31 3 0 12 -13
21 -30 9 -16 19 -30 23 -30 4 1 23 14 42 31 27 23 30 30 15 27 -19 -3 -20 3
-23 105 -1 62 2 115 8 127 10 18 8 19 -18 14 -16 -3 -44 1 -63 8 -28 12 -38
12 -59 1z m60 -95 c0 -42 0 -42 -33 -27 -20 9 -67 73 -67 92 0 3 23 -2 50 -11
48 -15 50 -17 50 -54z m-31 -39 c28 -10 31 -15 31 -53 0 -29 -6 -48 -19 -60
-18 -16 -20 -16 -40 10 -11 15 -21 32 -21 39 0 16 12 75 15 75 1 0 16 -5 34
-11z"/>
<path d="M2277 385 c-27 -20 -43 -36 -36 -40 7 -5 10 -45 8 -113 l-3 -105 47
-15 c44 -14 47 -14 76 9 16 13 30 28 30 33 1 5 -5 3 -13 -3 -9 -8 -21 -8 -40
-1 -26 9 -26 11 -26 110 l0 100 24 -15 c22 -15 24 -14 39 9 16 24 15 25 -19
45 -19 12 -36 21 -37 20 -1 -1 -23 -16 -50 -34z"/>
<path d="M2486 389 c-43 -23 -56 -33 -47 -42 15 -15 15 -179 -1 -195 -14 -14
-16 -11 43 -39 l46 -21 48 34 c27 19 44 34 39 34 -6 0 -19 -6 -29 -14 -16 -11
-23 -11 -47 3 -46 26 -38 61 27 116 30 26 55 53 55 59 0 6 -17 30 -38 53 l-37
42 -59 -30z m59 -49 l28 -40 -23 -25 c-13 -14 -27 -25 -32 -25 -4 0 -8 29 -8
65 0 36 2 65 4 65 2 0 16 -18 31 -40z"/>
<path d="M3001 406 c-6 -8 -25 -19 -41 -26 l-30 -12 0 -95 c0 -52 -4 -102 -10
-112 -8 -15 -3 -20 28 -29 21 -6 46 -18 57 -26 17 -12 24 -11 67 13 l48 26 0
118 c0 89 -3 117 -13 117 -7 0 -30 9 -52 20 -47 24 -40 23 -54 6z m57 -159 c2
-59 -1 -97 -7 -97 -6 0 -22 5 -36 12 -24 11 -25 14 -25 110 l0 98 33 -13 32
-13 3 -97z"/>
<path d="M3643 387 c-53 -28 -59 -34 -46 -46 11 -10 14 -32 11 -95 -2 -44 -7
-88 -11 -96 -6 -12 4 -21 41 -36 l48 -21 42 29 c43 30 60 52 19 25 -20 -13
-26 -13 -50 -1 -21 11 -27 22 -27 47 0 27 9 39 55 76 30 24 55 46 55 49 0 5
-70 102 -73 102 -1 -1 -30 -15 -64 -33z m63 -52 c28 -37 25 -53 -18 -76 -17
-9 -18 -5 -18 51 0 33 2 60 4 60 3 0 17 -16 32 -35z"/>
<path d="M3820 388 c-28 -24 -31 -28 -12 -23 22 6 22 5 22 -97 0 -62 -4 -108
-11 -115 -8 -8 2 -17 34 -33 l45 -23 31 24 c37 30 38 35 4 34 l-28 0 -3 94
c-3 108 9 139 39 99 l18 -23 23 22 22 23 -24 25 -24 25 -27 -26 c-26 -25 -27
-26 -38 -6 -17 32 -35 32 -71 0z"/>
</g>
</svg>
