<?xml version="1.0" standalone="no"?>
<!DOCTYPE svg PUBLIC "-//W3C//DTD SVG 20010904//EN"
 "http://www.w3.org/TR/2001/REC-SVG-20010904/DTD/svg10.dtd">
<svg version="1.0" xmlns="http://www.w3.org/2000/svg"
 width="543.000000pt" height="73.000000pt" viewBox="0 0 543.000000 73.000000"
 preserveAspectRatio="xMidYMid meet">

<g transform="translate(0.000000,73.000000) scale(0.100000,-0.100000)"
fill="#000000" stroke="none">
<path d="M720 718 c0 -7 -3 -30 -6 -50 -4 -22 -3 -38 3 -38 8 0 73 84 73 95 0
3 -16 5 -35 5 -21 0 -35 -5 -35 -12z"/>
<path d="M553 699 c-26 -26 -102 -27 -212 -4 -134 28 -213 13 -273 -51 -30
-32 -63 -103 -52 -113 4 -3 9 -1 11 6 11 29 50 67 87 84 38 17 96 26 96 14 0
-2 -21 -24 -46 -47 -68 -62 -96 -117 -102 -197 -3 -54 0 -76 18 -119 70 -163
289 -202 428 -77 28 25 57 63 66 86 18 43 13 69 -6 34 -18 -34 -84 -92 -117
-103 l-31 -11 0 200 0 199 30 0 c48 0 98 26 120 62 33 55 23 77 -17 37z m-314
-421 c-15 -36 -30 -35 -57 2 -33 44 -44 79 -43 142 0 70 32 148 75 185 l31 26
3 -164 c2 -106 -1 -173 -9 -191z m156 121 l0 -204 -27 -3 c-28 -3 -93 12 -117
27 -12 7 -5 18 31 53 53 52 58 71 58 228 l0 118 28 -7 27 -7 0 -205z"/>
<path d="M1138 686 c-36 -24 -36 -24 -64 -5 -40 26 -49 24 -25 -7 20 -25 21
-39 21 -242 0 -182 -2 -218 -16 -233 -14 -16 -14 -18 8 -24 13 -4 38 -18 55
-32 l33 -24 40 32 c22 18 37 36 34 41 -3 4 -9 6 -14 3 -5 -3 -19 -1 -30 5 -19
10 -20 20 -20 229 0 203 1 220 20 244 11 14 20 28 20 31 0 13 -29 5 -62 -18z"/>
<path d="M1910 699 c-32 -13 -61 -39 -54 -50 3 -5 14 -5 24 1 52 28 98 -1 107
-67 5 -39 5 -39 -66 -86 -39 -26 -71 -51 -71 -56 0 -5 10 -13 23 -17 62 -19
116 -92 117 -156 0 -21 -6 -28 -30 -33 -33 -7 -150 -91 -150 -107 0 -6 7 -7
18 -3 35 15 134 45 148 45 11 0 14 -18 14 -80 l0 -80 70 0 70 0 0 75 c0 87 2
89 95 54 l56 -21 59 54 59 53 -2 172 -2 171 -31 39 c-17 21 -52 53 -77 71
l-46 33 -45 -30 c-55 -38 -64 -38 -69 -3 -3 23 -4 22 -6 -8 -2 -61 -44 -83
-54 -30 -11 55 -92 85 -157 59z m336 -91 c61 -41 89 -100 58 -123 -41 -31
-127 -30 -159 2 -23 22 -21 129 3 142 28 17 47 13 98 -21z m-126 -293 l0 -285
-25 0 -25 0 0 269 c0 232 2 272 16 285 8 9 20 16 25 16 5 0 9 -116 9 -285z
m-130 150 l0 -56 -35 28 c-19 15 -35 30 -35 33 0 4 59 47 68 49 1 1 2 -24 2
-54z m330 -51 l0 -56 -27 8 c-35 10 -88 10 -130 -1 l-33 -7 0 52 c0 50 1 52
23 46 55 -16 85 -17 117 -3 19 9 38 16 43 16 4 1 7 -24 7 -55z m-35 -68 c35
-15 35 -15 35 -80 0 -37 -4 -66 -9 -66 -5 0 -25 7 -45 15 -19 8 -59 20 -86 26
-51 11 -51 11 -48 47 2 31 9 40 38 54 43 22 70 22 115 4z"/>
<path d="M2560 687 l-34 -24 -33 20 c-38 22 -42 16 -13 -20 18 -24 20 -41 20
-227 0 -166 -3 -205 -16 -224 -16 -23 -12 -42 9 -42 7 0 28 -11 47 -24 l35
-24 38 30 c40 32 48 49 20 42 -10 -2 -26 2 -36 10 -17 13 -18 32 -15 234 3
218 3 221 27 246 23 24 23 26 5 26 -11 0 -35 -11 -54 -23z"/>
<path d="M3691 689 c-33 -20 -37 -20 -62 -5 -38 22 -42 20 -24 -14 22 -42 22
-455 0 -480 -13 -14 -10 -19 21 -44 l35 -28 34 27 c36 27 42 39 25 50 -6 4
-10 57 -10 125 l0 119 33 25 c52 42 59 22 55 -171 -3 -146 -5 -164 -24 -190
-18 -24 -74 -63 -109 -76 -5 -3 -7 -8 -3 -12 10 -10 126 46 167 80 53 46 61
76 61 245 l0 150 -29 32 -29 33 -61 -48 -61 -48 0 95 c0 87 2 97 26 125 23 27
24 31 7 31 -10 0 -33 -10 -52 -21z"/>
<path d="M4380 687 l-34 -24 -33 20 c-38 22 -42 16 -13 -20 18 -24 20 -41 20
-227 0 -166 -3 -205 -16 -224 -16 -23 -12 -42 9 -42 7 0 28 -11 47 -24 l35
-24 38 30 c40 32 48 49 20 42 -10 -2 -26 2 -36 10 -17 13 -18 32 -15 234 3
218 3 221 27 246 23 24 23 26 5 26 -11 0 -35 -11 -54 -23z"/>
<path d="M4490 654 c0 -48 2 -50 55 -88 30 -21 52 -43 50 -47 -3 -4 -21 -13
-40 -19 l-35 -12 0 -121 c0 -89 -4 -130 -15 -151 -8 -15 -15 -30 -15 -31 0 -2
17 -6 37 -10 20 -4 57 -17 82 -30 l46 -22 60 33 60 33 5 158 c3 87 9 167 14
177 10 20 11 20 -37 1 -7 -3 -59 28 -114 69 -56 41 -113 82 -127 91 l-26 17 0
-48z m177 -180 l33 -25 0 -129 0 -129 -42 18 -43 18 -3 123 c-3 121 0 150 14
150 4 0 22 -11 41 -26z"/>
<path d="M888 580 c-32 -43 -58 -80 -58 -84 0 -3 9 -6 20 -6 19 0 20 -7 20
-125 0 -93 -4 -134 -15 -155 -15 -29 -15 -30 17 -46 18 -9 41 -23 50 -32 16
-13 22 -11 63 22 49 41 55 51 26 41 -11 -3 -29 0 -40 7 -20 12 -21 22 -21 150
l0 138 35 0 c31 0 35 3 35 25 0 22 -4 25 -35 25 l-34 0 -3 59 -3 59 -57 -78z"/>
<path d="M661 531 c-30 -25 -31 -28 -16 -41 15 -12 16 -32 13 -144 -2 -92 -7
-131 -15 -134 -21 -6 -15 -17 28 -51 l40 -33 40 28 c52 36 57 46 22 42 l-28
-3 -3 139 c-2 91 1 143 9 152 13 16 7 27 -29 53 l-27 19 -34 -27z"/>
<path d="M1327 509 c-74 -38 -78 -41 -63 -58 22 -24 23 -203 1 -245 -18 -34
-18 -36 -2 -36 6 0 36 -11 65 -25 l53 -25 60 41 c34 22 58 43 55 46 -3 3 -18
-4 -33 -15 -27 -20 -28 -20 -65 -1 -34 17 -38 23 -38 59 0 36 5 43 75 101 41
34 75 66 75 71 0 10 -88 122 -99 125 -3 1 -41 -16 -84 -38z m86 -70 l36 -46
-22 -19 c-12 -11 -32 -28 -44 -38 l-23 -19 0 93 c0 52 4 90 8 85 4 -6 24 -31
45 -56z"/>
<path d="M2755 535 c-16 -8 -40 -14 -52 -15 -24 0 -29 -9 -15 -26 5 -5 21 -30
35 -56 l27 -47 -24 -28 c-62 -75 -74 -150 -30 -202 14 -17 30 -31 36 -31 6 0
33 18 61 41 l52 41 10 -25 c13 -32 35 -57 49 -57 6 1 29 17 51 36 33 29 36 35
17 31 -32 -7 -42 24 -42 131 1 81 8 132 26 190 6 22 5 23 -14 11 -18 -11 -30
-11 -69 0 -73 21 -86 21 -118 6z m33 -56 l62 -21 0 -49 c0 -27 -3 -49 -7 -49
-35 3 -81 41 -106 88 -16 28 -24 52 -20 52 5 0 37 -9 71 -21z m60 -191 c3 -49
0 -55 -26 -75 -28 -21 -31 -21 -45 -5 -30 35 -39 65 -33 109 3 25 8 49 11 53
3 5 24 0 48 -10 41 -19 42 -20 45 -72z"/>
<path d="M3127 532 c-9 -10 -38 -29 -63 -42 -38 -18 -44 -24 -30 -32 13 -8 16
-28 16 -129 0 -66 -5 -129 -10 -140 -9 -15 -7 -20 7 -25 10 -3 40 -14 67 -24
l48 -19 44 36 c24 19 44 40 44 46 0 5 -8 2 -19 -7 -17 -16 -21 -16 -55 0 l-36
18 0 128 c0 70 4 128 8 128 5 0 17 -7 28 -15 28 -21 38 -19 57 14 19 32 16 36
-40 65 -40 20 -46 20 -66 -2z"/>
<path d="M3366 508 c-63 -32 -76 -42 -63 -50 24 -13 25 -232 1 -266 -11 -17
-12 -22 -2 -22 7 0 37 -12 67 -25 l54 -25 64 41 c63 41 82 67 24 33 -29 -17
-31 -17 -70 1 -37 16 -41 21 -41 55 0 35 6 43 72 96 39 33 76 62 81 66 10 6
-88 139 -101 137 -4 0 -43 -19 -86 -41z m88 -68 c21 -28 37 -52 35 -53 -2 -2
-19 -15 -37 -30 -19 -15 -38 -27 -43 -27 -5 0 -9 36 -9 80 0 44 4 80 8 80 4 0
25 -23 46 -50z"/>
<path d="M4040 519 c-24 -16 -50 -29 -56 -29 -9 0 -13 -38 -16 -137 -2 -76 -7
-146 -12 -156 -6 -13 -4 -17 12 -17 10 0 45 -13 76 -29 l57 -28 64 34 65 34 0
151 c0 144 -1 150 -21 155 -12 3 -42 17 -68 29 -25 13 -48 24 -51 23 -3 0 -25
-14 -50 -30z m65 -53 l35 -15 0 -130 0 -131 -26 10 c-67 26 -64 20 -64 155 0
79 4 125 10 125 6 0 26 -7 45 -14z"/>
<path d="M4934 507 c-79 -41 -80 -42 -61 -61 17 -16 19 -30 15 -127 -2 -68 -8
-113 -16 -121 -15 -15 -15 -28 1 -28 6 0 36 -11 65 -25 l53 -25 60 41 c34 22
58 43 55 46 -3 3 -18 -4 -33 -15 -27 -20 -28 -20 -65 -1 -34 18 -38 23 -38 59
0 37 5 44 75 101 41 34 75 65 75 69 0 10 -89 124 -98 127 -4 1 -43 -17 -88
-40z m116 -115 c0 -6 -18 -25 -40 -42 l-40 -32 0 92 0 93 40 -51 c22 -27 40
-54 40 -60z"/>
<path d="M5177 517 c-39 -34 -49 -54 -18 -38 10 6 21 7 25 4 3 -3 6 -65 6
-136 0 -104 -3 -134 -16 -148 -14 -15 -12 -18 18 -28 17 -6 42 -21 55 -33 l22
-21 51 43 c50 42 61 62 21 41 -15 -9 -26 -8 -41 1 -18 12 -20 23 -20 132 0 97
3 123 17 138 16 18 17 17 44 -14 l27 -33 26 24 c33 31 32 34 -3 73 l-29 32
-37 -33 -38 -33 -24 31 c-14 17 -30 31 -36 31 -7 -1 -29 -15 -50 -33z"/>
</g>
</svg>
